<?xml version="1.0" ?><svg viewBox="0 0 232.83 227.44" xmlns="http://www.w3.org/2000/svg"><g id="a"/><g id="b"><g id="c"><path d="M2.99,216.08c2.22-6.03,5.95-11.25,10.95-15.3s10.42-6.51,16.08-8.73c6.64-2.6,13.46-4.74,20.15-7.21,7.78-2.88,15.47-6.02,22.97-9.56,14.21-6.71,27.45-15.09,39.43-25.27,11.29-9.6,21.39-20.6,30.09-32.59s15.97-25.07,21.4-38.88c.66-1.67,1.28-3.35,1.88-5.03,.65-1.82-2.25-2.61-2.89-.8-4.96,13.9-11.84,27.07-20.18,39.23s-18.3,23.46-29.39,33.33c-11.64,10.36-24.61,18.97-38.58,25.86-7.49,3.69-15.18,6.93-22.99,9.89-6.87,2.6-13.87,4.84-20.74,7.42-11.74,4.4-23.16,10.57-29.06,22.19-.77,1.51-1.43,3.08-2.01,4.67-.67,1.81,2.23,2.6,2.89,.8h0Z"/><path d="M162.13,75.47c-3.14,14.53-10.71,27.65-19.62,39.38-8.88,11.69-19.29,22.24-29.93,32.32-5.61,5.31-11.43,10.43-17.71,14.92-6.18,4.42-12.74,7.91-19.7,10.93-14.54,6.3-29.61,11.52-43.45,19.32-5.82,3.28-11.16,7.26-15.82,12.07s-8.88,10.52-10.86,17c-.45,1.46-.73,2.95-.91,4.46l2.56-1.06c-2.08-2.64-2.87-5.81-3.69-9.01-.48-1.87-3.38-1.08-2.89,.8,.97,3.77,2.02,7.23,4.46,10.33,.91,1.16,2.43,.05,2.56-1.06,.78-6.48,4.68-12.38,8.89-17.17,4.34-4.95,9.46-9.22,15.13-12.57,13.61-8.04,28.6-13.33,43.1-19.48,7-2.97,13.73-6.21,20.03-10.5s12.15-9.21,17.75-14.37c10.78-9.93,21.23-20.48,30.37-31.95,9.15-11.48,17.19-24.23,21.33-38.43,.49-1.7,.92-3.42,1.3-5.15,.41-1.88-2.48-2.69-2.89-.8h0Z"/><path d="M23.63,194.27c3.06-7.67,7.14-15.19,12.08-21.81,1.15-1.55-1.45-3.05-2.59-1.51-5.1,6.85-9.22,14.61-12.38,22.53-.3,.76,.33,1.64,1.05,1.85,.85,.24,1.55-.3,1.85-1.05h0Z"/><path d="M35.45,171.7c.36-6.14-1.83-11.91-3.43-17.73-1.68-6.11-2.62-12.49-2.41-18.84,.39-12.3,5.48-23.45,12.17-33.56,1.64-2.47,3.26-4.96,4.91-7.42s3.52-4.95,5.98-6.71l-2.2-.9c4.24,10.86,4.43,22.95,2.9,34.38-1.56,11.7-5.02,23.45-10.05,34.13-1.5,3.18-3.18,6.33-5.23,9.2s-4.53,4.98-5.9,8.09c-.77,1.75,1.81,3.28,2.59,1.51,1.24-2.79,3.48-4.91,5.32-7.3,1.94-2.52,3.52-5.36,4.94-8.19,2.87-5.7,5.1-11.76,7.01-17.84,3.56-11.34,5.58-23.42,5.09-35.32-.28-6.62-1.37-13.26-3.79-19.45-.32-.82-1.34-1.51-2.2-.9-4.55,3.25-7.21,8.17-10.28,12.71-3.43,5.07-6.67,10.26-9.15,15.87s-4.18,11.57-4.84,17.73c-.71,6.54-.09,13.13,1.26,19.54,1.47,6.97,4.74,13.76,4.31,21.01-.11,1.93,2.89,1.92,3,0h0Z"/><path d="M61.1,180.87c5.31-2.87,9.3-8.02,12.2-13.2s5.2-11.23,5.21-17.26c0-1.93-3-1.93-3,0,0,5.51-2.13,11-4.8,15.75-2.66,4.75-6.25,9.48-11.13,12.12-1.7,.92-.19,3.51,1.51,2.59h0Z"/><path d="M75.45,148.18c-5.89-2.89-7.89-9.66-7.92-15.79s1.55-13.04,5.81-17.43c1.65-1.69,3.57-2.71,5.84-2.49s5.09,2.13,6.48,4.12c1.79,2.56,2.48,5.84,2.74,8.9,.3,3.63,.05,7.32-.76,10.87s-2.07,7.19-4.56,9.84c-2.17,2.3-4.76,2.97-7.75,1.86-1.81-.67-2.59,2.23-.8,2.89,3.28,1.22,6.7,.68,9.43-1.5,2.82-2.25,4.53-5.7,5.66-9.06,2.45-7.24,3-16.46-.34-23.52-2.7-5.71-10.04-9.66-15.82-5.91s-8.24,11.85-8.82,18.44c-.7,7.95,1.49,17.53,9.28,21.34,1.73,.85,3.25-1.74,1.51-2.59h0Z"/><path d="M63.52,181.02c9.86-3.95,20.68-4.98,30.68-.93,1.79,.73,2.57-2.18,.8-2.89-10.43-4.23-21.99-3.19-32.28,.93-1.77,.71-1,3.61,.8,2.89h0Z"/><path d="M91.91,180.95c-1.75,2.9-2.64,6.2-2.02,9.58,.54,2.94,2.31,5.58,4.49,7.57,4.79,4.38,11.79,6.65,18.24,6.28s12.42-3.74,13.94-10.28c1.73-7.48-5.3-13.28-11.37-15.98-6.89-3.07-17.59-4.9-22.8,2.08-1.16,1.55,1.45,3.04,2.59,1.51,3.68-4.93,11.97-3.46,16.87-1.73s12.01,5.82,11.99,11.86c-.02,5.42-5.09,8.79-9.96,9.42-5.46,.71-11.37-.89-15.85-4.06-2.2-1.56-4.16-3.75-4.95-6.31-.89-2.9-.13-5.84,1.43-8.44,1-1.66-1.59-3.17-2.59-1.51h0Z"/><path d="M103.33,158.8c3.03-1.08,6.11-2.03,9.26-2.66s6.36-1.02,9.39-.12c1.85,.55,2.65-2.34,.8-2.89-3.36-1-7-.63-10.39,0s-6.64,1.63-9.85,2.77c-1.81,.64-1.03,3.54,.8,2.89h0Z"/><path d="M125.55,155.55c12.52-4.51,24.93-9.47,37.91-12.55,9.55-2.27,19.73-3.45,29.5-2.01,5.27,.78,10.68,2.36,14.95,5.67l-.39-1.46c-1.78,4.28-6.75,6.95-10.65,8.92-4.71,2.38-9.72,4.38-14.76,5.94-12.58,3.89-26.24,4.9-39.1,1.73-6.8-1.68-13.15-4.6-18.96-8.52-1.6-1.08-3.11,1.51-1.51,2.59,11.15,7.53,24.26,11,37.67,10.79s25.65-3.85,37.25-9.49c5.07-2.46,10.69-5.72,12.95-11.17,.18-.43-.01-1.17-.39-1.46-8.21-6.36-19.29-7.5-29.35-7.04-11.68,.54-23.01,3.57-34.05,7.28-7.35,2.47-14.58,5.25-21.88,7.87-1.8,.65-1.03,3.55,.8,2.89h0Z"/><path d="M130.07,133.18c6.91-4.32,14.16-8.49,22.39-9.52,.81-.1,1.49-.62,1.5-1.5,0-.73-.7-1.6-1.5-1.5-8.81,1.09-16.49,5.29-23.9,9.93-1.63,1.02-.13,3.62,1.51,2.59h0Z"/><path d="M155.8,117.54c1.02-5.83,5.29-10.14,10.74-12.18,5.4-2.02,12.25-2.35,17.49,.36,4.49,2.32,7.24,7.41,4.92,12.27-1.35,2.82-3.84,4.6-6.52,6.05-3.37,1.81-7.02,3.11-10.79,3.77s-8.82,.83-12.3-1.23c-2.87-1.7-4.21-5.28-3.57-8.49,.37-1.89-2.52-2.69-2.89-.8-.7,3.55,.18,7.28,2.63,9.99,2.79,3.1,7.37,3.88,11.35,3.92,4.5,.04,9.02-1.02,13.16-2.72,3.59-1.48,7.37-3.34,9.87-6.41,4.09-5.04,3.77-12.21-1.08-16.65-5.22-4.78-13.46-5.39-20.08-3.83-7.59,1.79-14.41,7.19-15.81,15.17-.33,1.89,2.56,2.7,2.89,.8h0Z"/><path d="M156.57,99.08c3.47-1.32,6.81-2.96,10.05-4.78,3.02-1.7,6.01-3.55,8.67-5.79,1.48-1.24-.65-3.35-2.12-2.12-2.46,2.07-5.27,3.75-8.06,5.32-3,1.69-6.1,3.26-9.33,4.48-.76,.29-1.28,1.01-1.05,1.85,.2,.73,1.08,1.34,1.85,1.05h0Z"/><path d="M177.31,86.14c3.8-10.58,10.32-20.2,18.63-27.76,7.19-6.54,16.03-11.33,25.38-13.99,2.27-.65,8.83-2.48,8.51,1.77-.16,2.2-1.34,4.35-2.38,6.25s-2.12,3.74-3.35,5.5c-5.62,8.06-13.38,14.86-21.7,20.03-4.44,2.76-9.19,5.14-14.26,6.48-3.88,1.02-8.08,1.44-11.88-.11-.46-.19-1.14,.03-1.46,.39-1.1,1.24-2.32,2.33-3.66,3.31-1.55,1.13-.05,3.73,1.51,2.59s3-2.34,4.27-3.77l-1.46,.39c3.73,1.52,7.94,1.31,11.81,.5,4.81-1.01,9.41-3.05,13.68-5.43,9.46-5.27,18.09-12.62,24.6-21.29,1.4-1.86,2.65-3.81,3.79-5.83,1.23-2.17,2.47-4.43,3.12-6.86,.56-2.1,.63-4.59-1.05-6.21-1.5-1.46-3.79-1.71-5.78-1.56-4.52,.34-8.85,2.14-13,3.86-5.2,2.17-10.04,4.83-14.51,8.27-10.81,8.32-19.11,19.86-23.72,32.68-.65,1.82,2.24,2.6,2.89,.8h0Z"/><path d="M165.8,70.02c-3.83-8.16-6.01-17.24-7.07-26.17-1.14-9.55-1.12-19.57,1.66-28.86,1.36-4.54,3.45-8.91,6.64-12.45h-2.12c2.88,2.23,4.09,6.03,4.94,9.43,.92,3.65,1.38,7.38,1.81,11.11,.65,5.73,1,11.49,.68,17.26-.32,5.85-1.42,11.64-3.01,17.28-.88,3.13-1.92,6.25-3.27,9.21-1.2,2.61-2.76,5.05-3.69,7.79-.62,1.83,2.27,2.62,2.89,.8,.87-2.54,2.37-4.8,3.47-7.24,1.23-2.72,2.25-5.55,3.11-8.41,1.71-5.68,2.9-11.59,3.38-17.5,.5-6.23,.2-12.49-.5-18.7-.43-3.82-.87-7.65-1.73-11.41-.95-4.15-2.43-9-5.95-11.72-.61-.48-1.53-.66-2.12,0-6.39,7.09-8.85,16.77-9.6,26.07-.83,10.21,.35,20.66,2.85,30.58,1.25,4.96,2.89,9.83,5.06,14.46,.82,1.75,3.41,.23,2.59-1.51h0Z"/><path d="M138.48,122c2.02-2.98,3.58-6.28,4.82-9.65,1.31-3.55,2.31-7.34,2.4-11.14s-1.25-6.63-3.44-9.46-4.87-5.51-6.63-8.82c-7.79-14.64-9.77-32.03-9.82-48.39-.02-8.16,.34-17.24,4.29-24.59l-1.69,.69c1.49,.49,2.54,2.15,3.32,3.43,1.13,1.86,2.01,3.87,2.81,5.89,1.68,4.26,3.25,8.59,4.81,12.89,4.69,12.98,7.58,26.9,7,40.74-.33,7.85-1.77,15.58-3.87,23.14-.52,1.86,2.38,2.66,2.89,.8,1.95-7.01,3.33-14.18,3.84-21.44s.04-14.67-1.17-21.92-3.05-14.33-5.49-21.24c-.89-2.53-1.95-5-2.85-7.52-.75-2.09-1.46-4.18-2.27-6.25-1.57-3.99-3.7-9.93-8.22-11.42-.61-.2-1.39,.13-1.69,.69-3.54,6.58-4.38,14.39-4.63,21.74-.27,7.7,.13,15.48,1.09,23.12,1.08,8.62,2.95,17.19,6.3,25.24,1.54,3.7,3.27,7.31,5.79,10.45,2.14,2.68,4.99,5.2,6.15,8.51,1.3,3.72,.11,8.23-1.03,11.84-1.23,3.92-2.97,7.75-5.28,11.15-1.09,1.6,1.51,3.1,2.59,1.51h0Z"/><path d="M87.02,167.44c13.04-7.68,15.43-23.33,19.67-36.54,.59-1.84-2.3-2.63-2.89-.8-3.97,12.36-6.07,27.55-18.29,34.75-1.66,.98-.15,3.57,1.51,2.59h0Z"/><path d="M106.28,132.35c.42-6.73-2.19-13.05-4.53-19.21s-4.35-12.64-5.46-19.22c-1.96-11.59-.43-23.44,4.52-34.12,2.54-5.48,5.92-10.6,10.45-14.63l-2.36-.3c2.86,3.99,3.55,9.3,4.17,14.05,.71,5.51,1.63,10.98,2.36,16.49,.85,6.43,1.38,12.95,1.09,19.44-.27,6.12-1.48,12.12-3.49,17.9-2.28,6.55-5.58,12.71-9.55,18.39-1.11,1.59,1.49,3.09,2.59,1.51,7.24-10.37,12.21-22.43,13.27-35.1s-1.59-25.06-3.14-37.55c-.69-5.59-1.33-11.93-4.71-16.65-.58-.81-1.59-.99-2.36-.3-8.38,7.46-13.39,18.55-15.57,29.39-2.56,12.76-.28,25.55,3.91,37.71,2.48,7.19,6.3,14.4,5.81,22.21-.12,1.93,2.88,1.92,3,0h0Z"/></g></g></svg>