<?xml version="1.0" encoding="iso-8859-1"?>
<!-- Generator: Adobe Illustrator 19.0.0, SVG Export Plug-In . SVG Version: 6.00 Build 0)  -->
<svg fill="#EEE600" version="1.1" id="Capa_1" xmlns="http://www.w3.org/2000/svg" xmlns:xlink="http://www.w3.org/1999/xlink" x="0px" y="0px"
	 viewBox="0 0 112 112" style="enable-background:new 0 0 112 112;" xml:space="preserve">
<g id="_x30_601-chef-hat">
	<g>
		<path style="fill-rule:evenodd;clip-rule:evenodd;" d="M107.409,35.374c-0.552-0.683-0.962-1.51-1.236-2.472
			c-0.658-0.66-1.306-1.331-1.73-2.225c-1.761-1.617-3.717-3.039-5.685-4.449c-2.382-0.998-4.272-2.484-6.922-3.213
			c-2.162-1.217-4.523-2.234-6.921-3.214c-0.873-0.774-1.961-1.334-3.213-1.729c-0.882-0.85-2.376-1.086-3.461-1.731
			c-1.606-0.206-2.566,0.235-3.708,0.494c-0.122-1.279-1.186-1.617-1.73-2.472c-3.104-1.511-6.145-3.085-9.393-4.45
			c-3.015-1.599-6.267-2.961-9.146-4.696c-3.442-1.173-6.23-2.998-10.135-3.708c-0.597-0.557-1.784-0.522-2.719-0.742
			c-0.855-0.297-1.854-0.451-2.966-0.493c-2.137-0.171-4.272-0.343-6.675-0.247c-0.315,0.013-0.342,0.317-0.741,0.247
			c-5.074-0.046-9.577,1.731-12.853,2.966c-0.549,0.207-0.932,0.578-1.236,0.742C16.68,4.123,16.409,4.115,16.2,4.231
			c-1.722,0.936-3.306,2.005-4.697,2.965c-0.838,0.578-1.49,1.081-2.225,1.73c-2.826,3.684-4.288,8.731-5.438,14.091v9.393
			c0.967,4.719,2.881,8.488,5.685,11.369c1.358,1.444,3.003,2.602,4.697,3.709c1.784,1.1,4.065,1.7,5.932,2.719
			c0.178,0.359,0.063,2.076-0.248,2.719c-0.028,1.207,0.133,2.605-0.247,3.46c0.014,7.155-0.11,14.447,0.247,21.259
			c0.062,0.844,0.626,1.187,0.495,2.225c0.224,0.682,0.076,1.736,0.494,2.225c-0.014,1.91,0.958,2.831,1.484,4.202
			c-1.425,2.283-0.998,6.418-1.484,9.64c-0.125,3.835,0.15,7.266,1.236,9.887c0.955,0.61,1.428,1.703,2.966,1.73
			c0.646,1.002,2.116,1.18,2.966,1.979c0.613-0.038,1.026,0.127,1.236,0.493c2.568,0.481,5.059,1.038,7.663,1.483
			c2.96,0.088,5.741,0.355,8.651,0.494h18.539c3.764-0.439,7.597-0.808,10.875-1.73c3.146-1.056,6.723-1.682,7.911-4.695
			c0.684-0.105,0.013-0.777-0.495-0.494c-0.287-0.366-0.287-0.623,0-0.99c1.499-3.523,1.087-9.863,0.495-14.088
			c0.077-0.994,1.163-0.979,0.989-2.226c-0.432-1.905,0.014-3.345,0.247-5.19c0.041-4.572-0.039-9.025-0.495-13.101
			c-0.114-2.11,0.259-4.709-0.248-6.427v-3.46c0.035-1.118-0.338-2.646,0.989-2.472c0.721,0.422-0.56,0.898-0.247,1.729
			c0.004,0.904,0.702,1.111,0.989,1.73c3.222,1.391,6.808-0.416,9.393-1.234c2.538-1.334,4.789-2.955,6.921-4.697
			c3.115-3.559,6.148-7.199,6.673-13.348C108.236,38.996,107.698,37.311,107.409,35.374z M78.489,99.641
			c-0.081,1.926-1.086,3.582-0.741,5.191c-6.989,1.168-14.314,2-22.741,1.73c-0.134-1.515-0.366-2.929-1.73-3.213
			c-1.095-0.105-1.566,0.412-1.731,1.236c-0.786,0.12,0.416,2.229-0.741,1.977c0.379-1.787,0.531-4.361-1.482-4.449
			c-2.143,0.083-2.357,2.094-2.225,4.449c-3.895,0.021-7.814,0.068-11.124-0.494c0.364-1.284,0.229-3.066,0.248-4.697
			c0.115-1.68,0.026-3.156-1.236-3.461c-3.018,0.443-2.669,4.253-2.719,7.664c-0.885-0.021-1.428-0.386-2.225-0.494
			c0.022-2.615-0.122-5.396,0.247-7.664c-0.313-0.839-0.891-1.414-1.73-1.73c-2.224,0.085-2.337,2.277-2.225,4.697
			c-0.831,0.254-0.385-0.768-0.495-1.236v-4.943c0.132-0.956-0.441-1.207-0.248-2.225v-0.494c0.201-0.047,0.248-0.248,0.495-0.248
			c2.797,0.994,6.302,1.279,10.134,1.237c1.492,3.864,0.947,9.765,5.191,10.876c2.865-0.43,4.017-2.574,5.686-4.203
			c1.219-1.994,2.463-3.963,3.46-6.18c9.494,0.744,19.473-0.125,27.685-1.482C78.802,93.727,78.337,96.992,78.489,99.641z
			 M102.714,42.543c-0.242,0.006-0.192,0.303-0.248,0.494c-1.174,3.275-2.946,5.952-5.438,7.91
			c-2.163,2.204-5.046,3.687-8.404,4.696c-1.041,0.017,0.549-0.913,0-1.978c-0.677-0.559-1.379-1.094-2.471-1.236
			c-1.015,0.008-2.277,0.694-2.967,0.247c0-0.989,1.652-0.326,1.978-0.987c0.969-0.021,1.542-0.438,2.224-0.742
			c1.22-0.676,2.757-1.035,2.472-3.214c-0.304-1.263-1.78-1.351-3.46-1.236c-1.027,0.135-2.237,1.38-3.214,0.742
			c-0.036-1.438,1.884-0.919,2.472-1.729c1.078-0.24,1.78-0.857,2.719-1.237c1.587-1.132,3.199-2.239,3.708-4.45
			c-0.211-0.531-0.91-0.572-1.73-0.492H88.13c-2.477,0.27-4.345,2.091-6.922,1.482c-0.911,0.241-1.224,1.082-1.978,1.482
			c-0.35-0.02-0.7-0.04-0.741,0.248c-1.404,0.242-2.72,0.574-3.955,0.988c-1.524,0.043-2.579,0.552-2.966,1.73
			c0.102,1.627,1.32,2.141,2.719,2.472c1.445,0.349,3.447,0.085,4.45,0.246c-0.137,3.9-0.639,7.437-0.495,11.619
			c-0.343,2.327-0.421,5.843,0,8.157v3.954c0.61,4.581,0.166,10.215,1.236,14.337c-5.695,1.473-12.731,1.605-19.28,2.225
			c-3.887,0.068-8.177-0.268-11.371,0.494c-0.574,0.168-0.662,0.821-1.236,0.988c-0.226,0.434-0.084,1.232-0.494,1.482
			c-0.521,0.799-1.097,1.541-1.483,2.473c-0.703,0.697-0.847,1.955-1.73,2.472c-0.028,0.632-0.453,0.865-0.741,1.235
			c-0.223,0.432-0.553,0.953-0.99,0.494c-0.386-1.92-0.883-3.729-1.482-5.437c-0.393-1.346,0.858-1.929,0.247-2.72
			c-0.394-1.336-2.214-1.247-3.461-1.73c-4.349,0.064-8.271-0.299-11.618-1.236c-0.415-1.248,0.525-1.934,0.247-3.707
			c-0.078-1.816-0.374-3.416-0.495-5.191c1.905-1.062,3.525-2.407,5.686-3.214c1.448-1.518,4.337-1.596,4.696-4.201
			c-0.13-1.188-1.324-1.312-2.718-1.236c-1.245,0.074-2.305,0.332-2.966,0.988c-2.256,0.299-3.106,2.002-5.191,2.471
			c0.188-1.752-0.307-2.822-0.248-4.448c1.204-0.608,2.209-1.417,3.461-1.978c0.952-0.861,2.52-1.105,2.719-2.719
			c-0.368-3.154-4.347-1.526-6.18-0.742c-0.419-2.148,0.81-2.65,1.978-3.212c0.88-0.851,2.298-1.164,2.225-2.968
			c-0.272-0.798-0.786-1.355-1.977-1.234c-0.943-0.19-1.852,0.93-2.225,0.494c-0.4-1.063-0.4-3.635,0-4.696
			c3.315,0.726,7.201,0.875,10.877,1.235h11.864c3.147-0.315,6.427-0.495,9.146-1.235c2.639-0.823,5.345-1.577,5.932-4.45
			c-0.724-1.79-3.988-1.646-6.18-1.234c-2.33,0.306-4.856,0.416-7.167,0.74H35.973c-2.072-0.316-4.517-0.262-6.673-0.494
			c-0.814-0.338-1.976-0.331-2.966-0.494c-0.827-0.328-2.09-0.217-2.72-0.742c-4.07-0.625-6.97-2.422-9.639-4.449
			c-2.591-2.848-4.619-6.258-4.945-11.369v-4.697c0.231-1.912,0.542-3.742,0.743-5.686c0.24-0.008,0.191-0.303,0.247-0.494
			c2.808-4.44,7.582-6.92,11.37-10.382c4.322-1.446,9.263-2.27,15.326-1.978c3.629,0.41,6.693,1.383,9.64,2.473
			c1.314,0.745,3.102,1.018,4.202,1.977c1.553,0.426,2.602,1.354,4.202,1.73c1.09,0.97,2.816,1.304,3.955,2.225
			c1.619,0.358,2.448,1.508,4.202,1.731c1.11,0.867,2.611,1.344,4.202,1.73c1.296,0.682,2.948,1.008,4.943,0.988
			c1.093,0.023,1.784-0.358,2.225-0.988c0.485,0.34,0.134,1.514,0.495,1.977c2.191,1.517,4.496,2.919,6.673,4.449
			c1.32,0.576,2.513,1.277,3.709,1.979c1.321,0.492,2.568,1.057,3.707,1.729c5.242,2.092,10.099,4.567,13.1,8.899
			c-0.204,0.697,0.349,0.639,0.248,1.234c0.672-0.176-0.177,1.167,0.495,0.99V42.543z M57.973,71.463
			c-0.042,0.287-0.392,0.268-0.742,0.247c-1.001,0.812-2.187,1.439-3.213,2.226c-0.716,1.096-2.262,1.363-2.472,2.965
			c0.449,0.623,1.057,1.086,1.978,1.236c1.87-0.273,2.874-1.412,4.202-2.225c1.049-0.885,3.078-1.978,2.225-3.955
			C59.698,71.387,58.814,71.445,57.973,71.463z M49.569,71.957c-1.437,0.622-2.911,1.209-3.955,2.225
			c-1.409,0.65-2.767,1.353-3.213,2.966c0.343,0.399,0.7,0.782,0.989,1.237c1.212,0.262,1.958-0.389,2.719-0.742
			c0.793-0.369,1.668-0.759,2.225-1.482c1.689-0.785,3.424-1.521,3.461-3.955C51.383,71.791,50.342,72.008,49.569,71.957z"/>
	</g>
</g>
<g>
</g>
<g>
</g>
<g>
</g>
<g>
</g>
<g>
</g>
<g>
</g>
<g>
</g>
<g>
</g>
<g>
</g>
<g>
</g>
<g>
</g>
<g>
</g>
<g>
</g>
<g>
</g>
<g>
</g>
</svg>
